<?xml version="1.0" encoding="UTF-8"?>
<svg xmlns="http://www.w3.org/2000/svg" xmlns:xlink="http://www.w3.org/1999/xlink" width="528.693pt" height="150pt" viewBox="0 0 528.693 150" version="1.1">
<g id="surface1">
<path style=" stroke:none;fill-rule:nonzero;fill:rgb(100%,100%,100%);fill-opacity:1;" d="M 334.027344 71.046875 C 334.238281 62.574219 332.515625 56.589844 328.863281 53.097656 C 325.210938 49.601562 320.097656 47.855469 313.535156 47.855469 C 306.117188 47.855469 300.242188 49.601562 295.898438 53.097656 C 291.554688 56.589844 289.015625 62.574219 288.273438 71.046875 Z M 344.988281 114.414062 C 341.277344 117.167969 336.667969 119.367188 331.167969 121.007812 C 325.660156 122.648438 319.675781 123.46875 313.214844 123.46875 C 306.226562 123.46875 300.160156 122.4375 295.027344 120.371094 C 289.886719 118.308594 285.679688 115.367188 282.398438 111.554688 C 279.113281 107.742188 276.679688 103.136719 275.089844 97.734375 C 273.5 92.332031 272.707031 86.296875 272.707031 79.625 C 272.707031 65.328125 276.226562 54.394531 283.269531 46.820312 C 290.3125 39.25 300.347656 35.460938 313.375 35.460938 C 317.503906 35.460938 321.636719 35.914062 325.765625 36.8125 C 329.894531 37.714844 333.601562 39.40625 336.886719 41.894531 C 340.167969 44.386719 342.84375 47.800781 344.90625 52.144531 C 346.972656 56.484375 348.003906 62.148438 348.003906 69.140625 C 348.003906 70.835938 347.949219 72.792969 347.847656 75.019531 C 347.738281 77.242188 347.527344 79.414062 347.210938 81.53125 L 287.640625 81.53125 C 287.851562 91.273438 290.179688 98.636719 294.628906 103.609375 C 299.078125 108.59375 306.648438 111.078125 317.347656 111.078125 C 321.792969 111.078125 326.027344 110.3125 330.054688 108.773438 C 334.078125 107.238281 337.203125 105.414062 339.425781 103.292969 Z M 344.988281 114.414062 "/>
<path style=" stroke:none;fill-rule:nonzero;fill:rgb(100%,100%,100%);fill-opacity:1;" d="M 388.671875 99.164062 C 388.671875 103.507812 389.492188 106.578125 391.132812 108.378906 C 392.773438 110.179688 394.972656 111.078125 397.726562 111.078125 C 399.417969 111.078125 401.0625 110.976562 402.652344 110.761719 C 404.238281 110.550781 406.144531 110.125 408.371094 109.488281 L 410.277344 120.292969 C 409.21875 120.71875 407.945312 121.113281 406.464844 121.484375 C 404.980469 121.851562 403.445312 122.199219 401.855469 122.515625 C 400.269531 122.835938 398.679688 123.070312 397.089844 123.230469 C 395.503906 123.390625 394.074219 123.46875 392.800781 123.46875 C 387.082031 123.46875 382.527344 122.011719 379.140625 119.101562 C 375.75 116.1875 374.058594 111.34375 374.058594 104.5625 L 374.058594 10.046875 L 388.671875 10.046875 Z M 388.671875 99.164062 "/>
<path style=" stroke:none;fill-rule:nonzero;fill:rgb(100%,100%,100%);fill-opacity:1;" d="M 442.046875 99.164062 C 442.046875 103.507812 442.867188 106.578125 444.511719 108.378906 C 446.152344 110.179688 448.347656 111.078125 451.101562 111.078125 C 452.796875 111.078125 454.4375 110.976562 456.027344 110.761719 C 457.617188 110.550781 459.523438 110.125 461.746094 109.488281 L 463.652344 120.292969 C 462.59375 120.71875 461.320312 121.113281 459.839844 121.484375 C 458.355469 121.851562 456.820312 122.199219 455.234375 122.515625 C 453.644531 122.835938 452.054688 123.070312 450.46875 123.230469 C 448.878906 123.390625 447.449219 123.46875 446.179688 123.46875 C 440.460938 123.46875 435.90625 122.011719 432.515625 119.101562 C 429.125 116.1875 427.433594 111.34375 427.433594 104.5625 L 427.433594 10.046875 L 442.046875 10.046875 Z M 442.046875 99.164062 "/>
<path style=" stroke:none;fill-rule:nonzero;fill:rgb(100%,100%,100%);fill-opacity:1;" d="M 228.671875 99.164062 C 228.671875 103.507812 229.492188 106.578125 231.132812 108.378906 C 232.773438 110.179688 234.972656 111.078125 237.726562 111.078125 C 239.417969 111.078125 241.0625 110.976562 242.652344 110.761719 C 244.238281 110.550781 246.144531 110.125 248.371094 109.488281 L 250.277344 120.292969 C 249.21875 120.71875 247.945312 121.113281 246.464844 121.484375 C 244.980469 121.851562 243.445312 122.199219 241.855469 122.515625 C 240.269531 122.835938 238.679688 123.070312 237.089844 123.230469 C 235.503906 123.390625 234.074219 123.46875 232.800781 123.46875 C 227.082031 123.46875 222.527344 122.011719 219.140625 119.101562 C 215.75 116.1875 214.058594 111.34375 214.058594 104.5625 L 214.058594 10.046875 L 228.671875 10.046875 Z M 228.671875 99.164062 "/>
<path style=" stroke:none;fill-rule:nonzero;fill:rgb(100%,100%,100%);fill-opacity:1;" d="M 167.332031 71.667969 L 251.167969 71.667969 L 251.167969 81.667969 L 167.332031 81.667969 Z M 167.332031 71.667969 "/>
<path style=" stroke:none;fill-rule:evenodd;fill:rgb(100%,100%,100%);fill-opacity:1;" d="M 166.164062 70.867188 C 165.082031 77.976562 162.636719 84.152344 159.484375 89.117188 C 153.421875 98.667969 143.527344 107.492188 131.957031 111.65625 C 128.742188 112.816406 125.324219 113.695312 121.488281 113.753906 C 111.316406 113.90625 105.148438 109.242188 100.644531 103.382812 C 99.757812 102.226562 98.980469 100.960938 97.953125 99.890625 C 91.730469 101.085938 86.226562 100.765625 81.597656 98.695312 C 77.285156 96.765625 74.046875 93.558594 71.621094 89.816406 C 66.632812 82.109375 64.273438 70.878906 66.039062 58.902344 C 68.363281 43.113281 75.734375 30.726562 86.980469 23.300781 C 90.886719 20.722656 95.816406 18.390625 100.941406 18.015625 C 108.800781 17.4375 113.832031 21.03125 117.597656 24.796875 C 121.601562 28.800781 124.160156 33.835938 126.972656 38.757812 C 134.085938 37.550781 142.351562 36.589844 149.511719 38.460938 C 155.953125 40.140625 160.777344 44.003906 163.570312 49.429688 C 166.519531 55.148438 167.34375 63.148438 166.164062 70.867188 M 172.648438 47.53125 C 167.375 34.796875 155.324219 27.414062 136.644531 28.484375 C 141.390625 22.246094 146.59375 16.941406 156.09375 15.921875 C 157.363281 15.78125 159.121094 15.96875 160.378906 15.621094 C 163.191406 14.847656 163.878906 10.226562 160.878906 8.9375 C 159.929688 8.53125 158.582031 8.652344 157.289062 8.738281 C 148.554688 9.335938 142.566406 12.472656 137.644531 16.816406 C 136.652344 17.691406 135.800781 18.65625 134.851562 19.609375 C 133.453125 21.007812 132.0625 22.574219 130.960938 24.097656 C 130.5625 24.644531 130.398438 25.339844 129.765625 25.691406 C 124.277344 17.6875 117.160156 10.21875 105.132812 9.039062 C 100.816406 8.617188 96.671875 9.390625 92.964844 10.535156 C 82.84375 13.667969 74.855469 20.4375 69.03125 27.886719 C 66.953125 30.542969 65.367188 33.390625 63.746094 36.464844 C 60.65625 42.308594 58.28125 49.480469 57.0625 57.304688 C 55.777344 65.554688 56.304688 74.984375 58.457031 82.339844 C 62.542969 96.28125 71.035156 106.742188 86.316406 109.429688 C 91.933594 108.53125 96.199219 110.335938 99.355469 115.148438 C 103.902344 118.949219 109.054688 121.621094 116.300781 122.527344 C 125.015625 123.621094 132.773438 121.363281 139.238281 118.4375 C 151.382812 112.945312 161.699219 103.15625 168.160156 92.109375 C 171.480469 86.429688 174.160156 79.464844 175.238281 71.566406 C 176.410156 62.996094 175.429688 54.261719 172.648438 47.53125 C 167.375 34.796875 175.429688 54.261719 172.648438 47.53125 "/>
<path style=" stroke:none;fill-rule:nonzero;fill:rgb(100%,100%,100%);fill-opacity:1;" d="M 35.832031 71.667969 L 115.917969 71.667969 L 115.917969 81.667969 L 35.832031 81.667969 Z M 35.832031 71.667969 "/>
<path style=" stroke:none;fill-rule:nonzero;fill:rgb(100%,100%,100%);fill-opacity:1;" d="M 37.75 67.25 L 20 77 L 36.5 77 "/>
<path style=" stroke:none;fill-rule:nonzero;fill:rgb(100%,100%,100%);fill-opacity:1;" d="M 37.75 86 L 20 76.25 L 36.5 76.25 "/>
<path style=" stroke:none;fill-rule:nonzero;fill:rgb(100%,100%,100%);fill-opacity:1;" d="M 118.25 76.710938 C 118.25 79.492188 117.28125 81.75 116.085938 81.75 C 114.886719 81.75 113.917969 79.492188 113.917969 76.710938 C 113.917969 73.925781 114.886719 71.667969 116.085938 71.667969 C 117.28125 71.667969 118.25 73.925781 118.25 76.710938 "/>
<path style=" stroke:none;fill-rule:evenodd;fill:rgb(88.999939%,2.398682%,7.499695%);fill-opacity:1;" d="M 494.691406 116.140625 C 494.691406 119.824219 491.707031 122.808594 488.027344 122.808594 C 484.34375 122.808594 481.359375 119.824219 481.359375 116.140625 C 481.359375 112.460938 484.34375 109.472656 488.027344 109.472656 C 491.707031 109.472656 494.691406 112.460938 494.691406 116.140625 "/>
</g>
</svg>
