<?xml version="1.0" encoding="utf-8"?>
<!-- Generator: Adobe Illustrator 18.0.0, SVG Export Plug-In . SVG Version: 6.00 Build 0)  -->
<!DOCTYPE svg PUBLIC "-//W3C//DTD SVG 1.1//EN" "http://www.w3.org/Graphics/SVG/1.1/DTD/svg11.dtd">
<svg version="1.1" id="Layer_1" xmlns="http://www.w3.org/2000/svg" xmlns:xlink="http://www.w3.org/1999/xlink" x="0px" y="0px"
	 viewBox="0 0 200 200" enable-background="new 0 0 200 200" xml:space="preserve">
<circle fill="#1A8CCC" stroke="#1A8CCC" stroke-miterlimit="10" cx="99.8" cy="99.3" r="93.4"/>
<g>
	<path fill="#FFFFFF" d="M147.4,101h41.1v9.1h-41.1V101z"/>
	<path fill="#FFFFFF" d="M146.3,100.3c-1,6.5-3.2,12.1-6.1,16.7c-5.5,8.7-14.6,16.8-25.2,20.6c-2.9,1.1-6.1,1.9-9.6,1.9
		c-9.3,0.1-14.9-4.1-19.1-9.5c-0.8-1.1-1.5-2.2-2.5-3.2c-5.7,1.1-10.7,0.8-15-1.1c-3.9-1.8-6.9-4.7-9.1-8.1
		c-4.6-7-6.7-17.3-5.1-28.3c2.1-14.4,8.9-25.8,19.1-32.5c3.6-2.4,8.1-4.5,12.8-4.8c7.2-0.5,11.8,2.8,15.2,6.2
		c3.7,3.7,6,8.3,8.6,12.8c6.5-1.1,14.1-2,20.6-0.3c5.9,1.5,10.3,5.1,12.9,10C146.7,85.9,147.4,93.3,146.3,100.3 M152.3,79
		c-4.8-11.6-15.8-18.4-32.9-17.4c4.3-5.7,9.1-10.6,17.8-11.5c1.2-0.1,2.8,0,3.9-0.3c2.6-0.7,3.2-4.9,0.5-6.1
		c-0.9-0.4-2.1-0.3-3.3-0.2c-8,0.5-13.5,3.4-18,7.4c-0.9,0.8-1.7,1.7-2.6,2.6c-1.3,1.3-2.5,2.7-3.6,4.1c-0.4,0.5-0.5,1.1-1.1,1.5
		c-5-7.3-11.5-14.1-22.5-15.2c-3.9-0.4-7.7,0.3-11.1,1.4C70.2,48,62.9,54.2,57.6,61c-1.9,2.4-3.3,5-4.8,7.8c-2.8,5.3-5,11.9-6.1,19
		c-1.2,7.5-0.7,16.2,1.3,22.9c3.7,12.7,11.5,22.3,25.5,24.8c5.1-0.8,9,0.8,11.9,5.2c4.2,3.5,8.9,5.9,15.5,6.7c8,1,15.1-1.1,21-3.7
		c11.1-5,20.5-14,26.4-24.1c3-5.2,5.5-11.6,6.5-18.8C155.7,93.1,154.8,85.1,152.3,79C147.4,67.3,154.8,85.1,152.3,79"/>
	<path fill="#FFFFFF" d="M27.2,101h73.2v9.1H27.2V101z"/>
	<path fill="#FFFFFF" d="M29,97l-16.2,8.9h15.1"/>
	<path fill="#FFFFFF" d="M29,114.1l-16.2-8.9h15.1"/>
	<path fill="#FFFFFF" d="M102.5,105.7c0,2.5-0.9,4.6-2,4.6c-1.1,0-2-2.1-2-4.6c0-2.5,0.9-4.6,2-4.6
		C101.7,101,102.5,103.1,102.5,105.7"/>
</g>
</svg>
